
<svg xmlns="http://www.w3.org/2000/svg" version="1.1" xmlns:xlink="http://www.w3.org/1999/xlink" preserveAspectRatio="none" x="0px" y="0px" width="512px" height="512px" viewBox="0 0 512 512">
<defs>
<g id="Symbol_1_0_Layer0_0_FILL">
<path fill="#CCFFFF" stroke="none" d="
M 370.85 146.95
L 325.05 146.95 285.05 146.95 245.05 146.95 205.05 146.95 165.05 146.95 149.05 146.95 149.05 162.95 149.05 202.95 149.05 242.95 149.05 282.95 149.05 322.95 149.05 368.75 149.05 399.95 157.85 399.95 197.85 399.95 237.85 399.95 277.85 399.95 317.85 399.95 357.85 399.95 397.85 399.95 418 399.95 418 379.8 418 339.8 418 299.8 418 259.8 418 219.8 418 179.8 418 146.95 410.85 146.95 370.85 146.95 Z"/>
</g>

<path id="Symbol_1_0_Layer0_0_1_STROKES" stroke="#000000" stroke-width="1" stroke-linejoin="round" stroke-linecap="round" fill="none" d="
M 370.85 146.95
L 511.8 6
M 418 179.8
L 519.8 78
M 325.05 146.95
L 472 0
M 410.85 146.95
L 519.8 38
M 418 259.8
L 519.8 158
M 418 339.8
L 519.8 238
M 418 379.8
L 519.8 278
M 418 299.8
L 519.8 198
M 418 219.8
L 519.8 118
M 205.05 146.95
L 352 0
M 285.05 146.95
L 432 0
M 165.05 146.95
L 312 0
M 245.05 146.95
L 392 0
M 0 32
L 32 0
M 0 72
L 72 0
M 0 112
L 112 0
M 0 152
L 152 0
M 0 352
L 149.05 202.95
M 0 392
L 149.05 242.95
M 0 472
L 149.05 322.95
M 0 432
L 149.05 282.95
M 0 232
L 232 0
M 0 192
L 192 0
M 0 272
L 272 0
M 0 312
L 149.05 162.95
M 162 515.8
L 277.85 399.95
M 82 515.8
L 197.85 399.95
M 202 515.8
L 317.85 399.95
M 122 515.8
L 237.85 399.95
M 6 511.8
L 149.05 368.75
M 42 515.8
L 157.85 399.95
M 482 515.8
L 519.8 478
M 402 515.8
L 519.8 398
M 442 515.8
L 519.8 438
M 362 515.8
L 519.8 358
M 322 515.8
L 519.8 318
M 282 515.8
L 397.85 399.95
M 242 515.8
L 357.85 399.95"/>
</defs>

<g transform="matrix( 1, 0, 0, 1, 0,0) ">
<g transform="matrix( 1, 0, 0, 1, 0,0) ">
<use xlink:href="#Symbol_1_0_Layer0_0_FILL"/>

<use xlink:href="#Symbol_1_0_Layer0_0_1_STROKES"/>
</g>
</g>
</svg>
